<svg width="124" height="118" viewBox="0 0 124 118" fill="none" xmlns="http://www.w3.org/2000/svg">
<path d="M92.557 0.407227H31.442C14.5579 0.407227 0.822266 14.1469 0.822266 31.036V86.9639C0.822266 103.853 14.5579 117.593 31.442 117.593H92.557C109.441 117.593 123.177 103.853 123.177 86.9639V31.036C123.177 14.1469 109.441 0.407227 92.557 0.407227ZM11.624 31.036C11.624 20.1066 20.5158 11.2121 31.442 11.2121H92.557C103.483 11.2121 112.375 20.1066 112.375 31.036V86.9639C112.375 97.8933 103.483 106.788 92.557 106.788H31.442C20.5158 106.788 11.624 97.8933 11.624 86.9639V31.036Z" fill="#4F4F4F"/>
<path d="M61.9992 87.4831C77.7 87.4831 90.4807 74.7055 90.4807 58.9931C90.4807 43.2807 77.707 30.5032 61.9992 30.5032C46.2914 30.5032 33.5176 43.2807 33.5176 58.9931C33.5176 74.7055 46.2914 87.4831 61.9992 87.4831ZM61.9992 41.315C71.7491 41.315 79.6791 49.2473 79.6791 59.0001C79.6791 68.7528 71.7491 76.6852 61.9992 76.6852C52.2493 76.6852 44.3193 68.7528 44.3193 59.0001C44.3193 49.2473 52.2493 41.315 61.9992 41.315Z" fill="#4F4F4F"/>
<path d="M93.1173 35.1059C97.3453 35.1059 100.791 31.6658 100.791 27.4297C100.791 23.1935 97.3522 19.7534 93.1173 19.7534C88.8824 19.7534 85.4434 23.1935 85.4434 27.4297C85.4434 31.6658 88.8824 35.1059 93.1173 35.1059Z" fill="#4F4F4F"/>
</svg>
