<svg width="129" height="126" viewBox="0 0 129 126" fill="none" xmlns="http://www.w3.org/2000/svg">
<path d="M83.7603 91.8915C58.4825 91.8915 37.9171 71.3131 37.9102 46.0279C37.9171 39.6183 43.1346 34.4062 49.5284 34.4062C50.1858 34.4062 50.8362 34.4616 51.4589 34.5724C52.8291 34.8008 54.13 35.2645 55.3271 35.9636C55.5001 36.0675 55.6177 36.2336 55.6454 36.4274L58.3164 53.2681C58.351 53.4688 58.2887 53.6626 58.1573 53.8079C56.6834 55.4415 54.8012 56.6182 52.7045 57.2065L51.6943 57.4903L52.0748 58.4663C55.5208 67.2431 62.5375 74.2548 71.3186 77.7157L72.2943 78.1033L72.578 77.0928C73.1661 74.9955 74.3425 73.1127 75.9756 71.6384C76.0932 71.5277 76.2524 71.4723 76.4115 71.4723C76.4461 71.4723 76.4807 71.4723 76.5222 71.4792L93.3579 74.151C93.5586 74.1856 93.7247 74.2964 93.8285 74.4694C94.5205 75.6669 94.9841 76.9751 95.2194 78.3456C95.3301 78.9547 95.3785 79.5984 95.3785 80.2698C95.3785 86.6725 90.1679 91.8846 83.7603 91.8915Z" fill="#4F4F4F"/>
<path d="M128.586 57.4487C127.223 42.0409 120.165 27.7475 108.713 17.2056C97.1914 6.60149 82.2448 0.759521 66.6131 0.759521C32.3051 0.759521 4.39102 28.6819 4.39102 63C4.39102 74.5178 7.56711 85.738 13.5803 95.5115L0.169922 125.206L43.1068 120.631C50.5732 123.69 58.4755 125.24 66.6062 125.24C68.7444 125.24 70.938 125.13 73.1385 124.901C75.076 124.694 77.0343 124.389 78.958 124.001C107.689 118.194 128.662 92.6874 128.828 63.3322V63C128.828 61.1311 128.745 59.2622 128.579 57.4487H128.586ZM44.7607 107.597L21.0053 110.13L28.098 94.411L26.6794 92.5075C26.5756 92.369 26.4719 92.2306 26.3542 92.0714C20.1957 83.5646 16.9433 73.5142 16.9433 63.0069C16.9433 35.6106 39.2249 13.3225 66.6131 13.3225C92.2715 13.3225 114.02 33.3472 116.117 58.9092C116.228 60.2797 116.29 61.6572 116.29 63.0138C116.29 63.4015 116.283 63.7822 116.276 64.1905C115.75 87.1085 99.7448 106.572 77.3525 111.528C75.6434 111.909 73.8927 112.2 72.1489 112.387C70.3359 112.594 68.4745 112.698 66.627 112.698C60.0463 112.698 53.6525 111.425 47.6116 108.905C46.9404 108.635 46.283 108.344 45.6671 108.047L44.7676 107.611L44.7607 107.597Z" fill="#4F4F4F"/>
</svg>
