<svg width="127" height="88" viewBox="0 0 127 88" fill="none" xmlns="http://www.w3.org/2000/svg">
<path d="M105.302 87.638C102.368 87.9564 99.3651 88.0118 96.4865 88.0048C74.032 87.9841 51.5774 87.9633 29.1298 87.9495C22.0648 87.9495 14.3701 87.721 8.91039 83.2288C2.75876 78.1552 1.47864 69.3576 0.980416 61.3976C0.288443 50.4889 0.233079 39.5456 0.800496 28.63C1.11188 22.6357 1.65852 16.4961 4.23958 11.0694C6.09406 7.1725 9.18718 3.67009 13.1453 1.8289C17.7469 -0.309928 22.563 0.0707725 27.5175 0.0638508C39.3779 0.0500072 51.2384 0.0430834 63.0988 0.0292398C75.4297 0.0153963 87.7676 0.00847243 100.099 -0.00537109C105.925 -0.00537109 112.18 0.1123 116.934 3.4832C123.072 7.83006 124.74 16.1016 125.508 23.584C126.926 37.3652 126.947 51.2918 125.563 65.073C124.989 70.7558 124.034 76.7639 120.29 81.0762C116.581 85.3538 111.08 87.0012 105.309 87.6311L105.302 87.638Z" fill="#4F4F4F"/>
<path d="M83.5809 44.0101L50.1172 24.6846V63.3357L83.5809 44.0101Z" fill="#DCDCDC"/>
</svg>
