<svg width="101" height="124" viewBox="0 0 101 124" fill="none" xmlns="http://www.w3.org/2000/svg">
<path d="M100.825 41.6709V60.325C97.5663 60.0066 93.3315 59.266 88.6468 57.5494C82.5298 55.3067 77.9766 52.2404 74.9942 49.8662V87.5691L74.9181 87.4514C74.9665 88.199 74.9942 88.9603 74.9942 89.7287C74.9942 108.452 59.7638 123.694 41.0391 123.694C22.3143 123.694 7.08398 108.452 7.08398 89.7287C7.08398 71.0053 22.3143 55.7567 41.0391 55.7567C42.8728 55.7567 44.672 55.902 46.4296 56.1858V74.57C44.7411 73.9678 42.9282 73.6425 41.0391 73.6425C32.1749 73.6425 24.9576 80.855 24.9576 89.7287C24.9576 98.6024 32.1749 105.815 41.0391 105.815C49.9032 105.815 57.1205 98.5954 57.1205 89.7287C57.1205 89.3964 57.1136 89.0642 57.0928 88.7319V15.4651H75.7276C75.7968 17.0432 75.8591 18.6353 75.9283 20.2134C76.0529 23.3213 77.1601 26.3046 79.0907 28.7479C81.3534 31.6205 84.6956 34.9568 89.3872 37.6216C93.7812 40.1135 97.9054 41.1794 100.825 41.6847V41.6709Z" fill="#242727"/>
<path d="M94.4173 26.526V45.1802C91.1581 44.8618 86.9232 44.1211 82.2386 42.4045C76.1215 40.1619 71.5683 37.0956 68.5859 34.7214V72.4242L68.5098 72.3066C68.5582 73.0541 68.5859 73.8155 68.5859 74.5838C68.5859 93.3072 53.3556 108.549 34.6309 108.549C15.9061 108.549 0.675781 93.3072 0.675781 74.5838C0.675781 55.8605 15.9061 40.6118 34.6309 40.6118C36.4646 40.6118 38.2637 40.7572 40.0213 41.041V59.4252C38.3329 58.823 36.52 58.4976 34.6309 58.4976C25.7667 58.4976 18.5494 65.7101 18.5494 74.5838C18.5494 83.4575 25.7667 90.67 34.6309 90.67C43.495 90.67 50.7123 83.4506 50.7123 74.5838C50.7123 74.2516 50.7054 73.9193 50.6846 73.5871V0.306396H69.3194C69.3886 1.88456 69.4509 3.47656 69.5201 5.05473C69.6447 8.1626 70.7518 11.1459 72.6824 13.5893C74.9452 16.4618 78.2874 19.7981 82.979 22.463C87.373 24.9479 91.4971 26.0207 94.4173 26.526Z" fill="#303737"/>
<path d="M98.4935 34.6799V53.3341C95.2343 53.0157 90.9994 52.275 86.3147 50.5584C80.1977 48.3158 75.6445 45.2494 72.6621 42.8753V80.5781L72.586 80.4604C72.6345 81.208 72.6621 81.9694 72.6621 82.7377C72.6621 101.461 57.4318 116.703 38.707 116.703C19.9823 116.703 4.75195 101.461 4.75195 82.7377C4.75195 64.0143 19.9823 48.7657 38.707 48.7657C40.5408 48.7657 42.3399 48.9111 44.0975 49.1949V67.579C42.4091 66.9768 40.5961 66.6515 38.707 66.6515C29.8429 66.6515 22.6256 73.864 22.6256 82.7377C22.6256 91.6114 29.8429 98.8239 38.707 98.8239C47.5712 98.8239 54.7885 91.6045 54.7885 82.7377C54.7885 82.4055 54.7816 82.0732 54.7608 81.741V8.47412H73.3956C73.4648 10.0523 73.5271 11.6443 73.5963 13.2225C73.7209 16.3303 74.828 19.3136 76.7586 21.757C79.0213 24.6295 82.3636 27.9658 87.0551 30.6307C91.4492 33.1156 95.5733 34.1885 98.4935 34.6938V34.6799Z" fill="#4F4F4F"/>
</svg>
